<svg xmlns="http://www.w3.org/2000/svg" xmlns:xlink="http://www.w3.org/1999/xlink" width="1920" height="1080" viewBox="0 0 1920 1080"><defs><style>.a{fill:#6b44ba;}.b{clip-path:url(#c);}.c{fill:#dcdade;opacity:0.62;}.c,.f,.g{mix-blend-mode:multiply;}.c,.e,.f,.g{isolation:isolate;}.d{clip-path:url(#a);}.e{fill:none;mix-blend-mode:soft-light;}.f,.g{fill:#3c167f;}.f{opacity:0.081;}.g{opacity:0.022;}.h{fill:#fff;}</style><clipPath id="a"><path class="a" d="M27.984,0H1901.518c15.455,0,27.984,11.111,27.984,24.818v1028.7c0,13.707-12.529,24.818-27.984,24.818H27.984C12.529,1078.339,0,1067.228,0,1053.521V24.818C0,11.111,12.529,0,27.984,0Z" transform="translate(0)"/></clipPath><clipPath id="c"><rect width="1920" height="1080"/></clipPath></defs><g id="b" class="b"><rect class="h" width="1920" height="1080"/><g transform="translate(-4.423 -2)"><g transform="translate(0 2)"><path class="c" d="M102.318,12.7C103.339,5.43,109.858,0,117.567,0h1694.79c7.709,0,14.228,5.43,15.25,12.7L1930.064,742c1.233,8.78-5.943,16.583-15.25,16.583h-17.97S1276.006,841,964.962,841,33.045,758.585,33.045,758.585H15.109c-9.307,0-16.483-7.8-15.25-16.583Z" transform="translate(0.279 299)"/><rect class="a" width="1929.502" height="1078.339" transform="translate(0.279 0)"/><g class="d" transform="translate(0.279 0)"><rect class="e" width="1746.434" height="1163.056" transform="translate(-23.786 0)"/><rect class="f" width="170.703" height="151.389" transform="translate(1758.799 148.908)"/><rect class="g" width="170.703" height="151.389" transform="translate(1248.09 148.908)"/><rect class="g" width="170.703" height="151.389" transform="translate(680.013 148.908)"/><rect class="f" width="170.703" height="151.389" transform="translate(1417.394 300.297)"/></g></g></g></g></svg>