<svg xmlns="http://www.w3.org/2000/svg" width="84.636" height="24.541" viewBox="0 0 84.636 24.541"><defs><style>.a{fill:#fefefe;}</style></defs><path class="a" d="M3.907,18.673C1.526,18.673,0,17.36,0,14.493V1.635A1.623,1.623,0,0,1,1.632,0,1.6,1.6,0,0,1,3.238,1.635V14.493c0,1.072.482,1.527,1.205,1.527.026,0,.134-.026.187-.026a1.282,1.282,0,0,1,1.286,1.339c0,.883-.75,1.313-1.767,1.339Z" transform="translate(35.061 0.458)"/><path class="a" d="M0,1.634A1.6,1.6,0,0,1,1.606,0,1.622,1.622,0,0,1,3.238,1.634v11.2a1.6,1.6,0,0,1-1.632,1.607A1.594,1.594,0,0,1,0,12.832Z" transform="translate(0 4.82)"/><path class="a" d="M0,1.769A1.6,1.6,0,0,1,1.605.135,1.623,1.623,0,0,1,3.238,1.769v.7A5.123,5.123,0,0,1,7.655,0c3.185,0,5.032,2.143,5.032,5.413v7.554a1.578,1.578,0,0,1-1.607,1.607,1.6,1.6,0,0,1-1.632-1.607V6.4c0-2.2-1.1-3.456-3.025-3.456-1.874,0-3.185,1.312-3.185,3.51v6.509a1.6,1.6,0,0,1-1.633,1.607A1.594,1.594,0,0,1,0,12.968Z" transform="translate(5.844 4.82)"/><path class="a" d="M0,7.448V7.394A7.3,7.3,0,0,1,7.361,0a7.152,7.152,0,0,1,4.952,1.769,1.542,1.542,0,0,1,.507,1.125,1.473,1.473,0,0,1-1.5,1.474,1.644,1.644,0,0,1-.963-.322,4.481,4.481,0,0,0-3.024-1.2,4.264,4.264,0,0,0-4.1,4.5v.053a4.279,4.279,0,0,0,4.228,4.528,4.71,4.71,0,0,0,3.158-1.259A1.365,1.365,0,0,1,12.9,11.735a1.26,1.26,0,0,1-.457,1.017,6.906,6.906,0,0,1-5.137,2.009A7.219,7.219,0,0,1,0,7.448" transform="translate(20.453 4.82)"/><path class="a" d="M0,1.634A1.6,1.6,0,0,1,1.605,0,1.623,1.623,0,0,1,3.238,1.634v11.2a1.6,1.6,0,0,1-1.633,1.607A1.594,1.594,0,0,1,0,12.832Z" transform="translate(43 5.102)"/><path class="a" d="M0,1.769A1.6,1.6,0,0,1,1.606.135,1.623,1.623,0,0,1,3.238,1.769v.7A5.126,5.126,0,0,1,7.655,0c3.186,0,5.032,2.143,5.032,5.413v7.554a1.578,1.578,0,0,1-1.606,1.607,1.6,1.6,0,0,1-1.632-1.607V6.4c0-2.2-1.1-3.456-3.025-3.456-1.875,0-3.185,1.312-3.185,3.51v6.509a1.6,1.6,0,0,1-1.632,1.607A1.594,1.594,0,0,1,0,12.968Z" transform="translate(49.21 4.82)"/><g transform="translate(63.18 5.227)"><path class="a" d="M7.011,19.314a12.243,12.243,0,0,1-5.459-1.259,1.329,1.329,0,0,1-.91-1.286A1.37,1.37,0,0,1,2.007,15.43a1.263,1.263,0,0,1,.589.134,8.607,8.607,0,0,0,4.335,1.125c2.924,0,4.47-1.5,4.47-4.34V10.716a5.875,5.875,0,0,1-4.978,2.6,6.416,6.416,0,0,1-4.456-1.752A6.532,6.532,0,0,1,0,6.7V6.645a6.564,6.564,0,0,1,1.977-4.89A6.4,6.4,0,0,1,6.423,0a6.134,6.134,0,0,1,4.952,2.411v-.67a1.619,1.619,0,1,1,3.238.027V12.081a7.272,7.272,0,0,1-1.794,5.332C11.558,18.674,9.6,19.314,7.011,19.314ZM7.279,2.732A3.822,3.822,0,0,0,3.265,6.618v.053a3.864,3.864,0,0,0,4.014,3.885,3.935,3.935,0,0,0,4.149-3.885V6.618A3.935,3.935,0,0,0,7.279,2.732Z"/></g><path class="a" d="M4.578,0H4.312a.17.17,0,0,0-.141.075L3.458,1.145,2.746.075A.173.173,0,0,0,2.6,0H.169A.169.169,0,0,0,0,.169V.413A.169.169,0,0,0,.169.582H.785V2.514a.17.17,0,0,0,.171.169h.267a.168.168,0,0,0,.169-.169V.582h.617a.167.167,0,0,0,.16-.114V2.514a.168.168,0,0,0,.168.169H2.6a.169.169,0,0,0,.169-.169V1.167l.545.8a.168.168,0,0,0,.139.074h.014A.166.166,0,0,0,3.6,1.966l.545-.8v1.35a.169.169,0,0,0,.169.169h.264a.168.168,0,0,0,.169-.169V.169A.168.168,0,0,0,4.578,0" transform="translate(79.888 6.274)"/><path class="a" d="M3.227,1.618A1.614,1.614,0,1,1,1.614,0,1.616,1.616,0,0,1,3.227,1.618" transform="translate(0 0)"/><path class="a" d="M3.227,1.618A1.614,1.614,0,1,1,1.614,0,1.616,1.616,0,0,1,3.227,1.618" transform="translate(43 0)"/></svg>